<mxfile host="app.diagrams.net" modified="2023-10-11T18:22:16.944Z" agent="Mozilla/5.0 (Macintosh; Intel Mac OS X 10_15_7) AppleWebKit/605.1.15 (KHTML, like Gecko) Version/17.0 Safari/605.1.15" etag="31YSqUiKJ9ip8Wn8-Zgo" version="22.0.4" type="github">
  <diagram id="olFv6TPG68tbGUUxpUug" name="페이지-1">
    <mxGraphModel dx="1585" dy="1403" grid="1" gridSize="10" guides="1" tooltips="1" connect="1" arrows="1" fold="1" page="1" pageScale="1" pageWidth="827" pageHeight="1169" math="0" shadow="0">
      <root>
        <mxCell id="0" />
        <mxCell id="1" parent="0" />
      </root>
    </mxGraphModel>
  </diagram>
</mxfile>
